<svg width="120" height="22" viewBox="0 0 120 22" fill="none" xmlns="http://www.w3.org/2000/svg">
<path d="M6.87027 16H1.02262V14.8398L3.78238 11.8984C4.16129 11.4844 4.44059 11.123 4.62027 10.8145C4.80387 10.5059 4.89566 10.2129 4.89566 9.93555C4.89566 9.55664 4.79996 9.25977 4.60855 9.04492C4.41715 8.82617 4.14371 8.7168 3.78824 8.7168C3.40543 8.7168 3.1027 8.84961 2.88004 9.11523C2.66129 9.37695 2.55191 9.72266 2.55191 10.1523H0.852695C0.852695 9.63281 0.975742 9.1582 1.22184 8.72852C1.47184 8.29883 1.8234 7.96289 2.27652 7.7207C2.72965 7.47461 3.24332 7.35156 3.81754 7.35156C4.69645 7.35156 5.37809 7.5625 5.86246 7.98438C6.35074 8.40625 6.59488 9.00195 6.59488 9.77148C6.59488 10.1934 6.48551 10.623 6.26676 11.0605C6.04801 11.498 5.67301 12.0078 5.14176 12.5898L3.2023 14.6348H6.87027V16ZM7.9252 11.8047L8.41738 7.46875H13.1986V8.88086H9.80606L9.59512 10.7148C9.99746 10.5 10.4252 10.3926 10.8783 10.3926C11.6908 10.3926 12.3275 10.6445 12.7885 11.1484C13.2494 11.6523 13.4799 12.3574 13.4799 13.2637C13.4799 13.8145 13.3627 14.3086 13.1283 14.7461C12.8979 15.1797 12.5658 15.5176 12.1322 15.7598C11.6986 15.998 11.1869 16.1172 10.5971 16.1172C10.0814 16.1172 9.60293 16.0137 9.16152 15.8066C8.72012 15.5957 8.37051 15.3008 8.1127 14.9219C7.85879 14.543 7.72402 14.1113 7.7084 13.627H9.38418C9.41934 13.9824 9.54238 14.2598 9.75332 14.459C9.96816 14.6543 10.2475 14.752 10.5912 14.752C10.974 14.752 11.2689 14.6152 11.476 14.3418C11.683 14.0645 11.7865 13.6738 11.7865 13.1699C11.7865 12.6855 11.6674 12.3145 11.4291 12.0566C11.1908 11.7988 10.8529 11.6699 10.4154 11.6699C10.0131 11.6699 9.68691 11.7754 9.43691 11.9863L9.27285 12.1387L7.9252 11.8047ZM20.8641 13.6753C20.8641 14.3989 20.6986 14.9819 20.3676 15.4243C20.0365 15.8667 19.5883 16.0879 19.0228 16.0879C18.4457 16.0879 17.9916 15.9048 17.6605 15.5386V17.8281H16.8475V11.2451H17.5902L17.6298 11.7725C17.9608 11.3623 18.4208 11.1572 19.0096 11.1572C19.5809 11.1572 20.0321 11.3726 20.3632 11.8032C20.6971 12.2339 20.8641 12.833 20.8641 13.6006V13.6753ZM20.0512 13.583C20.0512 13.0469 19.9369 12.6235 19.7084 12.313C19.4799 12.0024 19.1664 11.8472 18.7679 11.8472C18.2758 11.8472 17.9066 12.0654 17.6605 12.502V14.7739C17.9037 15.2075 18.2758 15.4243 18.7767 15.4243C19.1664 15.4243 19.4755 15.2705 19.704 14.9629C19.9354 14.6523 20.0512 14.1924 20.0512 13.583ZM21.4459 13.5786C21.4459 13.1128 21.5367 12.6938 21.7184 12.3218C21.903 11.9497 22.1578 11.6626 22.483 11.4604C22.8112 11.2583 23.1847 11.1572 23.6036 11.1572C24.2511 11.1572 24.774 11.3813 25.1725 11.8296C25.5738 12.2778 25.7745 12.874 25.7745 13.6182V13.6753C25.7745 14.1382 25.6852 14.5542 25.5065 14.9233C25.3307 15.2896 25.0773 15.5752 24.7462 15.7803C24.4181 15.9854 24.0402 16.0879 23.6124 16.0879C22.9679 16.0879 22.4449 15.8638 22.0436 15.4155C21.6451 14.9673 21.4459 14.374 21.4459 13.6357V13.5786ZM22.2633 13.6753C22.2633 14.2026 22.3849 14.626 22.628 14.9453C22.8741 15.2646 23.2023 15.4243 23.6124 15.4243C24.0255 15.4243 24.3536 15.2632 24.5968 14.9409C24.84 14.6157 24.9615 14.1616 24.9615 13.5786C24.9615 13.0571 24.837 12.6353 24.588 12.313C24.3419 11.9878 24.0138 11.8252 23.6036 11.8252C23.2023 11.8252 22.8785 11.9849 22.6324 12.3042C22.3863 12.6235 22.2633 13.0806 22.2633 13.6753ZM27.4374 16H26.6244V11.2451H27.4374V16ZM26.5585 9.98389C26.5585 9.85205 26.598 9.74072 26.6771 9.6499C26.7591 9.55908 26.8793 9.51367 27.0375 9.51367C27.1957 9.51367 27.3158 9.55908 27.3978 9.6499C27.4798 9.74072 27.5209 9.85205 27.5209 9.98389C27.5209 10.1157 27.4798 10.2256 27.3978 10.3135C27.3158 10.4014 27.1957 10.4453 27.0375 10.4453C26.8793 10.4453 26.7591 10.4014 26.6771 10.3135C26.598 10.2256 26.5585 10.1157 26.5585 9.98389ZM29.2716 11.2451L29.2979 11.8428C29.6612 11.3857 30.1358 11.1572 30.7218 11.1572C31.7267 11.1572 32.2335 11.7241 32.2423 12.8579V16H31.4293V12.8535C31.4264 12.5107 31.3473 12.2573 31.192 12.0933C31.0396 11.9292 30.8009 11.8472 30.4757 11.8472C30.212 11.8472 29.9806 11.9175 29.7813 12.0581C29.5821 12.1987 29.4269 12.3833 29.3155 12.6118V16H28.5025V11.2451H29.2716ZM34.3314 10.0938V11.2451H35.2191V11.8735H34.3314V14.8223C34.3314 15.0127 34.3709 15.1562 34.45 15.2529C34.5291 15.3467 34.6639 15.3936 34.8543 15.3936C34.9481 15.3936 35.077 15.376 35.2411 15.3408V16C35.0272 16.0586 34.8192 16.0879 34.617 16.0879C34.2537 16.0879 33.9798 15.978 33.7953 15.7583C33.6107 15.5386 33.5184 15.2266 33.5184 14.8223V11.8735H32.6527V11.2451H33.5184V10.0938H34.3314Z" fill="#FFD164"/>
<path d="M85.2746 11.8047L85.7668 7.46875H90.548V8.88086H87.1554L86.9445 10.7148C87.3468 10.5 87.7746 10.3926 88.2277 10.3926C89.0402 10.3926 89.6769 10.6445 90.1379 11.1484C90.5988 11.6523 90.8293 12.3574 90.8293 13.2637C90.8293 13.8145 90.7121 14.3086 90.4777 14.7461C90.2472 15.1797 89.9152 15.5176 89.4816 15.7598C89.048 15.998 88.5363 16.1172 87.9464 16.1172C87.4308 16.1172 86.9523 16.0137 86.5109 15.8066C86.0695 15.5957 85.7199 15.3008 85.4621 14.9219C85.2082 14.543 85.0734 14.1113 85.0578 13.627H86.7336C86.7687 13.9824 86.8918 14.2598 87.1027 14.459C87.3175 14.6543 87.5968 14.752 87.9406 14.752C88.3234 14.752 88.6183 14.6152 88.8254 14.3418C89.0324 14.0645 89.1359 13.6738 89.1359 13.1699C89.1359 12.6855 89.0168 12.3145 88.7785 12.0566C88.5402 11.7988 88.2023 11.6699 87.7648 11.6699C87.3625 11.6699 87.0363 11.7754 86.7863 11.9863L86.6222 12.1387L85.2746 11.8047ZM97.4154 12.4727C97.4154 13.6523 97.1713 14.5547 96.683 15.1797C96.1947 15.8047 95.4799 16.1172 94.5385 16.1172C93.6088 16.1172 92.8979 15.8105 92.4057 15.1973C91.9135 14.584 91.6615 13.7051 91.6498 12.5605V10.9902C91.6498 9.79883 91.8959 8.89453 92.3881 8.27734C92.8842 7.66016 93.5971 7.35156 94.5268 7.35156C95.4564 7.35156 96.1674 7.6582 96.6596 8.27148C97.1518 8.88086 97.4037 9.75781 97.4154 10.9023V12.4727ZM95.7221 10.75C95.7221 10.043 95.6244 9.5293 95.4291 9.20898C95.2377 8.88477 94.9369 8.72266 94.5268 8.72266C94.1283 8.72266 93.8334 8.87695 93.642 9.18555C93.4545 9.49023 93.3549 9.96875 93.3432 10.6211V12.6953C93.3432 13.3906 93.4369 13.9082 93.6244 14.248C93.8158 14.584 94.1205 14.752 94.5385 14.752C94.9525 14.752 95.2514 14.5898 95.435 14.2656C95.6186 13.9414 95.7143 13.4453 95.7221 12.7773V10.75ZM104.864 13.6753C104.864 14.3989 104.699 14.9819 104.368 15.4243C104.037 15.8667 103.588 16.0879 103.023 16.0879C102.446 16.0879 101.992 15.9048 101.661 15.5386V17.8281H100.848V11.2451H101.59L101.63 11.7725C101.961 11.3623 102.421 11.1572 103.01 11.1572C103.581 11.1572 104.032 11.3726 104.363 11.8032C104.697 12.2339 104.864 12.833 104.864 13.6006V13.6753ZM104.051 13.583C104.051 13.0469 103.937 12.6235 103.708 12.313C103.48 12.0024 103.166 11.8472 102.768 11.8472C102.276 11.8472 101.907 12.0654 101.661 12.502V14.7739C101.904 15.2075 102.276 15.4243 102.777 15.4243C103.166 15.4243 103.475 15.2705 103.704 14.9629C103.935 14.6523 104.051 14.1924 104.051 13.583ZM105.446 13.5786C105.446 13.1128 105.537 12.6938 105.718 12.3218C105.903 11.9497 106.158 11.6626 106.483 11.4604C106.811 11.2583 107.185 11.1572 107.604 11.1572C108.251 11.1572 108.774 11.3813 109.172 11.8296C109.574 12.2778 109.775 12.874 109.775 13.6182V13.6753C109.775 14.1382 109.685 14.5542 109.506 14.9233C109.331 15.2896 109.077 15.5752 108.746 15.7803C108.418 15.9854 108.04 16.0879 107.612 16.0879C106.968 16.0879 106.445 15.8638 106.044 15.4155C105.645 14.9673 105.446 14.374 105.446 13.6357V13.5786ZM106.263 13.6753C106.263 14.2026 106.385 14.626 106.628 14.9453C106.874 15.2646 107.202 15.4243 107.612 15.4243C108.026 15.4243 108.354 15.2632 108.597 14.9409C108.84 14.6157 108.962 14.1616 108.962 13.5786C108.962 13.0571 108.837 12.6353 108.588 12.313C108.342 11.9878 108.014 11.8252 107.604 11.8252C107.202 11.8252 106.879 11.9849 106.632 12.3042C106.386 12.6235 106.263 13.0806 106.263 13.6753ZM111.437 16H110.624V11.2451H111.437V16ZM110.558 9.98389C110.558 9.85205 110.598 9.74072 110.677 9.6499C110.759 9.55908 110.879 9.51367 111.037 9.51367C111.196 9.51367 111.316 9.55908 111.398 9.6499C111.48 9.74072 111.521 9.85205 111.521 9.98389C111.521 10.1157 111.48 10.2256 111.398 10.3135C111.316 10.4014 111.196 10.4453 111.037 10.4453C110.879 10.4453 110.759 10.4014 110.677 10.3135C110.598 10.2256 110.558 10.1157 110.558 9.98389ZM113.272 11.2451L113.298 11.8428C113.661 11.3857 114.136 11.1572 114.722 11.1572C115.727 11.1572 116.233 11.7241 116.242 12.8579V16H115.429V12.8535C115.426 12.5107 115.347 12.2573 115.192 12.0933C115.04 11.9292 114.801 11.8472 114.476 11.8472C114.212 11.8472 113.981 11.9175 113.781 12.0581C113.582 12.1987 113.427 12.3833 113.316 12.6118V16H112.503V11.2451H113.272ZM118.331 10.0938V11.2451H119.219V11.8735H118.331V14.8223C118.331 15.0127 118.371 15.1562 118.45 15.2529C118.529 15.3467 118.664 15.3936 118.854 15.3936C118.948 15.3936 119.077 15.376 119.241 15.3408V16C119.027 16.0586 118.819 16.0879 118.617 16.0879C118.254 16.0879 117.98 15.978 117.795 15.7583C117.611 15.5386 117.518 15.2266 117.518 14.8223V11.8735H116.653V11.2451H117.518V10.0938H118.331Z" fill="#02367F"/>
<path d="M1 1.5C1 0.671573 1.67157 0 2.5 0H34V3H2.5C1.67157 3 1 2.32843 1 1.5Z" fill="#F9F9F9"/>
<path d="M1.25 1.5C1.25 0.809644 1.80964 0.25 2.5 0.25H33.75V2.75H2.5C1.80964 2.75 1.25 2.19036 1.25 1.5Z" stroke="#02367F" stroke-opacity="0.2" stroke-width="0.5"/>
<path d="M120 1.5C120 0.671573 119.328 0 118.5 0H80V3H118.5C119.328 3 120 2.32843 120 1.5Z" fill="#F9F9F9"/>
<path d="M119.75 1.5C119.75 0.809644 119.19 0.25 118.5 0.25H80.25V2.75H118.5C119.19 2.75 119.75 2.19036 119.75 1.5Z" stroke="#02367F" stroke-opacity="0.2" stroke-width="0.5"/>
<path d="M33 0H59V3H33V0Z" fill="#FFD164"/>
<path d="M95 0H59V3H95V0Z" fill="#02367F"/>
</svg>
