<svg width="119" height="22" viewBox="0 0 119 22" fill="none" xmlns="http://www.w3.org/2000/svg">
<path d="M6.8234 8.41797L3.52457 16H1.73746L5.04215 8.83984H0.799961V7.46875H6.8234V8.41797ZM13.2338 9.73633C13.2338 10.1504 13.1303 10.5176 12.9232 10.8379C12.7162 11.1582 12.4311 11.4141 12.0678 11.6055C12.4818 11.8047 12.81 12.0801 13.0521 12.4316C13.2943 12.7793 13.4154 13.1895 13.4154 13.6621C13.4154 14.4199 13.1576 15.0195 12.642 15.4609C12.1264 15.8984 11.4252 16.1172 10.5385 16.1172C9.65176 16.1172 8.94863 15.8965 8.4291 15.4551C7.90957 15.0137 7.64981 14.416 7.64981 13.6621C7.64981 13.1895 7.7709 12.7773 8.01309 12.4258C8.25527 12.0742 8.58145 11.8008 8.9916 11.6055C8.62832 11.4141 8.34316 11.1582 8.13613 10.8379C7.93301 10.5176 7.83145 10.1504 7.83145 9.73633C7.83145 9.00977 8.07363 8.43164 8.55801 8.00195C9.04238 7.56836 9.70059 7.35156 10.5326 7.35156C11.3607 7.35156 12.017 7.56641 12.5014 7.99609C12.9896 8.42188 13.2338 9.00195 13.2338 9.73633ZM11.7162 13.5391C11.7162 13.168 11.6088 12.8711 11.3939 12.6484C11.1791 12.4258 10.89 12.3145 10.5268 12.3145C10.1674 12.3145 9.88027 12.4258 9.66543 12.6484C9.45059 12.8672 9.34316 13.1641 9.34316 13.5391C9.34316 13.9023 9.44863 14.1953 9.65957 14.418C9.87051 14.6406 10.1635 14.752 10.5385 14.752C10.9057 14.752 11.1928 14.6445 11.3998 14.4297C11.6107 14.2148 11.7162 13.918 11.7162 13.5391ZM11.5404 9.81836C11.5404 9.48633 11.4525 9.2207 11.2768 9.02148C11.101 8.81836 10.8529 8.7168 10.5326 8.7168C10.2162 8.7168 9.97012 8.81445 9.79434 9.00977C9.61856 9.20508 9.53066 9.47461 9.53066 9.81836C9.53066 10.1582 9.61856 10.4316 9.79434 10.6387C9.97012 10.8457 10.2182 10.9492 10.5385 10.9492C10.8588 10.9492 11.1049 10.8457 11.2768 10.6387C11.4525 10.4316 11.5404 10.1582 11.5404 9.81836ZM20.8641 13.6753C20.8641 14.3989 20.6986 14.9819 20.3676 15.4243C20.0365 15.8667 19.5883 16.0879 19.0228 16.0879C18.4457 16.0879 17.9916 15.9048 17.6605 15.5386V17.8281H16.8475V11.2451H17.5902L17.6298 11.7725C17.9608 11.3623 18.4208 11.1572 19.0096 11.1572C19.5809 11.1572 20.0321 11.3726 20.3632 11.8032C20.6971 12.2339 20.8641 12.833 20.8641 13.6006V13.6753ZM20.0512 13.583C20.0512 13.0469 19.9369 12.6235 19.7084 12.313C19.4799 12.0024 19.1664 11.8472 18.7679 11.8472C18.2758 11.8472 17.9066 12.0654 17.6605 12.502V14.7739C17.9037 15.2075 18.2758 15.4243 18.7767 15.4243C19.1664 15.4243 19.4755 15.2705 19.704 14.9629C19.9354 14.6523 20.0512 14.1924 20.0512 13.583ZM21.4459 13.5786C21.4459 13.1128 21.5367 12.6938 21.7184 12.3218C21.903 11.9497 22.1578 11.6626 22.483 11.4604C22.8112 11.2583 23.1847 11.1572 23.6036 11.1572C24.2511 11.1572 24.774 11.3813 25.1725 11.8296C25.5738 12.2778 25.7745 12.874 25.7745 13.6182V13.6753C25.7745 14.1382 25.6852 14.5542 25.5065 14.9233C25.3307 15.2896 25.0773 15.5752 24.7462 15.7803C24.4181 15.9854 24.0402 16.0879 23.6124 16.0879C22.9679 16.0879 22.4449 15.8638 22.0436 15.4155C21.6451 14.9673 21.4459 14.374 21.4459 13.6357V13.5786ZM22.2633 13.6753C22.2633 14.2026 22.3849 14.626 22.628 14.9453C22.8741 15.2646 23.2023 15.4243 23.6124 15.4243C24.0255 15.4243 24.3536 15.2632 24.5968 14.9409C24.84 14.6157 24.9615 14.1616 24.9615 13.5786C24.9615 13.0571 24.837 12.6353 24.588 12.313C24.3419 11.9878 24.0138 11.8252 23.6036 11.8252C23.2023 11.8252 22.8785 11.9849 22.6324 12.3042C22.3863 12.6235 22.2633 13.0806 22.2633 13.6753ZM27.4374 16H26.6244V11.2451H27.4374V16ZM26.5585 9.98389C26.5585 9.85205 26.598 9.74072 26.6771 9.6499C26.7591 9.55908 26.8793 9.51367 27.0375 9.51367C27.1957 9.51367 27.3158 9.55908 27.3978 9.6499C27.4798 9.74072 27.5209 9.85205 27.5209 9.98389C27.5209 10.1157 27.4798 10.2256 27.3978 10.3135C27.3158 10.4014 27.1957 10.4453 27.0375 10.4453C26.8793 10.4453 26.7591 10.4014 26.6771 10.3135C26.598 10.2256 26.5585 10.1157 26.5585 9.98389ZM29.2716 11.2451L29.2979 11.8428C29.6612 11.3857 30.1358 11.1572 30.7218 11.1572C31.7267 11.1572 32.2335 11.7241 32.2423 12.8579V16H31.4293V12.8535C31.4264 12.5107 31.3473 12.2573 31.192 12.0933C31.0396 11.9292 30.8009 11.8472 30.4757 11.8472C30.212 11.8472 29.9806 11.9175 29.7813 12.0581C29.5821 12.1987 29.4269 12.3833 29.3155 12.6118V16H28.5025V11.2451H29.2716ZM34.3314 10.0938V11.2451H35.2191V11.8735H34.3314V14.8223C34.3314 15.0127 34.3709 15.1562 34.45 15.2529C34.5291 15.3467 34.6639 15.3936 34.8543 15.3936C34.9481 15.3936 35.077 15.376 35.2411 15.3408V16C35.0272 16.0586 34.8192 16.0879 34.617 16.0879C34.2537 16.0879 33.9798 15.978 33.7953 15.7583C33.6107 15.5386 33.5184 15.2266 33.5184 14.8223V11.8735H32.6527V11.2451H33.5184V10.0938H34.3314Z" fill="#FFD164"/>
<path d="M89.8703 16H84.0226V14.8398L86.7824 11.8984C87.1613 11.4844 87.4406 11.123 87.6203 10.8145C87.8039 10.5059 87.8957 10.2129 87.8957 9.93555C87.8957 9.55664 87.8 9.25977 87.6086 9.04492C87.4171 8.82617 87.1437 8.7168 86.7882 8.7168C86.4054 8.7168 86.1027 8.84961 85.88 9.11523C85.6613 9.37695 85.5519 9.72266 85.5519 10.1523H83.8527C83.8527 9.63281 83.9757 9.1582 84.2218 8.72852C84.4718 8.29883 84.8234 7.96289 85.2765 7.7207C85.7296 7.47461 86.2433 7.35156 86.8175 7.35156C87.6964 7.35156 88.3781 7.5625 88.8625 7.98438C89.3507 8.40625 89.5949 9.00195 89.5949 9.77148C89.5949 10.1934 89.4855 10.623 89.2668 11.0605C89.048 11.498 88.673 12.0078 88.1418 12.5898L86.2023 14.6348H89.8703V16ZM96.4154 12.4727C96.4154 13.6523 96.1713 14.5547 95.683 15.1797C95.1947 15.8047 94.4799 16.1172 93.5385 16.1172C92.6088 16.1172 91.8979 15.8105 91.4057 15.1973C90.9135 14.584 90.6615 13.7051 90.6498 12.5605V10.9902C90.6498 9.79883 90.8959 8.89453 91.3881 8.27734C91.8842 7.66016 92.5971 7.35156 93.5268 7.35156C94.4564 7.35156 95.1674 7.6582 95.6596 8.27148C96.1518 8.88086 96.4037 9.75781 96.4154 10.9023V12.4727ZM94.7221 10.75C94.7221 10.043 94.6244 9.5293 94.4291 9.20898C94.2377 8.88477 93.9369 8.72266 93.5268 8.72266C93.1283 8.72266 92.8334 8.87695 92.642 9.18555C92.4545 9.49023 92.3549 9.96875 92.3432 10.6211V12.6953C92.3432 13.3906 92.4369 13.9082 92.6244 14.248C92.8158 14.584 93.1205 14.752 93.5385 14.752C93.9525 14.752 94.2514 14.5898 94.435 14.2656C94.6186 13.9414 94.7143 13.4453 94.7221 12.7773V10.75ZM103.864 13.6753C103.864 14.3989 103.699 14.9819 103.368 15.4243C103.037 15.8667 102.588 16.0879 102.023 16.0879C101.446 16.0879 100.992 15.9048 100.661 15.5386V17.8281H99.8475V11.2451H100.59L100.63 11.7725C100.961 11.3623 101.421 11.1572 102.01 11.1572C102.581 11.1572 103.032 11.3726 103.363 11.8032C103.697 12.2339 103.864 12.833 103.864 13.6006V13.6753ZM103.051 13.583C103.051 13.0469 102.937 12.6235 102.708 12.313C102.48 12.0024 102.166 11.8472 101.768 11.8472C101.276 11.8472 100.907 12.0654 100.661 12.502V14.7739C100.904 15.2075 101.276 15.4243 101.777 15.4243C102.166 15.4243 102.475 15.2705 102.704 14.9629C102.935 14.6523 103.051 14.1924 103.051 13.583ZM104.446 13.5786C104.446 13.1128 104.537 12.6938 104.718 12.3218C104.903 11.9497 105.158 11.6626 105.483 11.4604C105.811 11.2583 106.185 11.1572 106.604 11.1572C107.251 11.1572 107.774 11.3813 108.172 11.8296C108.574 12.2778 108.775 12.874 108.775 13.6182V13.6753C108.775 14.1382 108.685 14.5542 108.506 14.9233C108.331 15.2896 108.077 15.5752 107.746 15.7803C107.418 15.9854 107.04 16.0879 106.612 16.0879C105.968 16.0879 105.445 15.8638 105.044 15.4155C104.645 14.9673 104.446 14.374 104.446 13.6357V13.5786ZM105.263 13.6753C105.263 14.2026 105.385 14.626 105.628 14.9453C105.874 15.2646 106.202 15.4243 106.612 15.4243C107.026 15.4243 107.354 15.2632 107.597 14.9409C107.84 14.6157 107.962 14.1616 107.962 13.5786C107.962 13.0571 107.837 12.6353 107.588 12.313C107.342 11.9878 107.014 11.8252 106.604 11.8252C106.202 11.8252 105.879 11.9849 105.632 12.3042C105.386 12.6235 105.263 13.0806 105.263 13.6753ZM110.437 16H109.624V11.2451H110.437V16ZM109.558 9.98389C109.558 9.85205 109.598 9.74072 109.677 9.6499C109.759 9.55908 109.879 9.51367 110.037 9.51367C110.196 9.51367 110.316 9.55908 110.398 9.6499C110.48 9.74072 110.521 9.85205 110.521 9.98389C110.521 10.1157 110.48 10.2256 110.398 10.3135C110.316 10.4014 110.196 10.4453 110.037 10.4453C109.879 10.4453 109.759 10.4014 109.677 10.3135C109.598 10.2256 109.558 10.1157 109.558 9.98389ZM112.272 11.2451L112.298 11.8428C112.661 11.3857 113.136 11.1572 113.722 11.1572C114.727 11.1572 115.233 11.7241 115.242 12.8579V16H114.429V12.8535C114.426 12.5107 114.347 12.2573 114.192 12.0933C114.04 11.9292 113.801 11.8472 113.476 11.8472C113.212 11.8472 112.981 11.9175 112.781 12.0581C112.582 12.1987 112.427 12.3833 112.316 12.6118V16H111.503V11.2451H112.272ZM117.331 10.0938V11.2451H118.219V11.8735H117.331V14.8223C117.331 15.0127 117.371 15.1562 117.45 15.2529C117.529 15.3467 117.664 15.3936 117.854 15.3936C117.948 15.3936 118.077 15.376 118.241 15.3408V16C118.027 16.0586 117.819 16.0879 117.617 16.0879C117.254 16.0879 116.98 15.978 116.795 15.7583C116.611 15.5386 116.518 15.2266 116.518 14.8223V11.8735H115.653V11.2451H116.518V10.0938H117.331Z" fill="#02367F"/>
<path d="M1.25 1.5C1.25 0.809644 1.80964 0.25 2.5 0.25H33.75V2.75H2.5C1.80964 2.75 1.25 2.19036 1.25 1.5Z" fill="#F9F9F9" stroke="#E1E1E1" stroke-width="0.5"/>
<path d="M118.75 1.5C118.75 0.809644 118.19 0.25 117.5 0.25H77.25V2.75H117.5C118.19 2.75 118.75 2.19036 118.75 1.5Z" fill="#F9F9F9" stroke="#E1E1E1" stroke-width="0.5"/>
<path d="M10 0H59V3H10V0Z" fill="#FFD164"/>
<path d="M81 0H59V3H81V0Z" fill="#02367F"/>
</svg>
