<svg width="25" height="25" viewBox="0 0 25 25" fill="none" xmlns="http://www.w3.org/2000/svg">
<path d="M0.593628 10.1583L2.93533 22.8232C3.15748 24.0732 4.23837 24.9878 5.50789 25H19.492C20.7616 24.9878 21.8425 24.0733 22.0646 22.8232L24.4063 10.1583H0.593628ZM8.21238 15.8312C8.21238 16.1955 7.91707 16.4908 7.55275 16.4908C7.18844 16.4908 6.89312 16.1955 6.89312 15.8312V13.8523C6.89312 13.488 7.18844 13.1926 7.55275 13.1926C7.91707 13.1926 8.21238 13.488 8.21238 13.8523V15.8312ZM18.1069 15.8312C18.1069 16.1955 17.8116 16.4908 17.4472 16.4908C17.0829 16.4908 16.7876 16.1955 16.7876 15.8312V13.8523C16.7876 13.488 17.0829 13.1926 17.4472 13.1926C17.8116 13.1926 18.1069 13.488 18.1069 13.8523V15.8312Z" fill="black" fill-opacity="0.2"/>
<path d="M8.21239 5.60684C8.21239 3.23888 10.132 1.31926 12.5 1.31926C14.8679 1.31926 16.7875 3.23888 16.7875 5.60684V9.49867H18.1068V5.60684C18.1069 2.51025 15.5966 0 12.5 0C9.40338 0 6.89313 2.51025 6.89313 5.60684V9.49867H8.21239V5.60684Z" fill="black" fill-opacity="0.2"/>
</svg>
