<svg width="25" height="21" viewBox="0 0 25 21" fill="none" xmlns="http://www.w3.org/2000/svg">
<path d="M20.8333 0H12.5H4.16667L0 6.07893L12.5 20.9999L25 6.07893L20.8333 0Z" fill="#DF4D60"/>
<path d="M8.33333 6.07893H0L4.16667 0L8.33333 6.07893Z" fill="#FB7B76"/>
<path d="M24.9999 6.07893H16.6666L20.8333 0L24.9999 6.07893Z" fill="#FB7B76"/>
<path d="M20.8333 0L16.6666 6.07893L12.4999 0H20.8333Z" fill="#FF5364"/>
<path d="M12.5 0L8.33332 6.07893L4.16666 0H12.5Z" fill="#FF5364"/>
<path d="M16.6667 6.07893H8.3334L12.5001 0L16.6667 6.07893Z" fill="#FB7B76"/>
<path d="M16.6667 6.0787L15.7381 9.39448L14.9643 12.1797L12.5 20.9997L8.33337 6.0787H16.6667Z" fill="#FF5364"/>
</svg>
