<svg width="25" height="25" viewBox="0 0 25 25" fill="none" xmlns="http://www.w3.org/2000/svg">
<g opacity="0.2">
<path d="M6.25 9.81955H0.894352C0.40272 9.81955 0.00523013 10.217 0 10.7139V24.103C0 24.5999 0.40272 24.9974 0.894352 24.9974H6.25C6.74686 24.9974 7.14435 24.5947 7.14435 24.103V10.7139C7.14435 10.217 6.74163 9.81955 6.25 9.81955Z" fill="black"/>
<path d="M15.1778 0.00262451H9.82216C9.33053 0.00262451 8.92781 0.400114 8.92781 0.891746V24.103C8.92781 24.5999 9.33053 24.9974 9.82216 24.9974H15.1778C15.6747 24.9974 16.0721 24.5947 16.0721 24.103V0.896976C16.0721 0.400114 15.6694 0.00262451 15.1778 0.00262451Z" fill="black"/>
<path d="M24.1057 7.14175H18.75C18.2531 7.14175 17.8557 7.53924 17.8557 8.03611V24.1031C17.8557 24.5999 18.2584 24.9974 18.75 24.9974H24.1057C24.6025 24.9974 25 24.5947 25 24.1031V8.03611C25 7.53924 24.5973 7.14175 24.1057 7.14175Z" fill="black"/>
</g>
</svg>
