<svg width="25" height="25" viewBox="0 0 25 25" fill="none" xmlns="http://www.w3.org/2000/svg">
<g clip-path="url(#clip0)">
<path d="M24.5801 11.176L13.3635 0.955425C12.8711 0.506745 12.1287 0.506793 11.6366 0.955377L0.419826 11.1761C0.0254415 11.5354 -0.104832 12.0891 0.0878438 12.5867C0.280568 13.0842 0.749806 13.4056 1.28335 13.4056H3.07485V23.6459C3.07485 24.0519 3.40405 24.3811 3.81005 24.3811H9.95819C10.3642 24.3811 10.6934 24.0519 10.6934 23.6459V17.4283H14.3068V23.6459C14.3068 24.0519 14.636 24.3811 15.042 24.3811H21.1898C21.5958 24.3811 21.925 24.052 21.925 23.6459V13.4056H23.7169C24.2503 13.4056 24.7196 13.0841 24.9124 12.5867C25.1048 12.0891 24.9745 11.5354 24.5801 11.176Z" fill="white"/>
<path d="M21.733 2.08643H16.7955L22.4682 7.24442V2.82158C22.4682 2.41558 22.139 2.08643 21.733 2.08643Z" fill="white"/>
</g>
<defs>
<clipPath id="clip0">
<rect width="25" height="25" fill="white"/>
</clipPath>
</defs>
</svg>
