<svg width="25" height="26" viewBox="0 0 25 26" fill="none" xmlns="http://www.w3.org/2000/svg">
<path d="M13.6361 2C13.6361 0.895428 14.5316 0 15.6361 0H24.9998V9.36364C24.9998 10.4682 24.1043 11.3636 22.9998 11.3636H15.6361C14.5316 11.3636 13.6361 10.4682 13.6361 9.36363V2Z" fill="#02367F"/>
<path d="M11.3639 2C11.3639 0.895428 10.4684 0 9.36386 0H0.000226974V9.36364C0.000226974 10.4682 0.895658 11.3636 2.00023 11.3636H9.36386C10.4684 11.3636 11.3639 10.4682 11.3639 9.36363V2Z" fill="#02367F"/>
<path d="M23 13.6383C24.1046 13.6383 25 14.5337 25 15.6383L25 25.0019L15.6364 25.0019C14.5318 25.0019 13.6364 24.1065 13.6364 23.0019L13.6364 15.6383C13.6364 14.5337 14.5318 13.6383 15.6364 13.6383L23 13.6383Z" fill="#02367F"/>
<path d="M2 13.6383C0.895428 13.6383 3.91405e-08 14.5337 8.74228e-08 15.6383L4.9672e-07 25.0019L9.36364 25.0019C10.4682 25.0019 11.3636 24.1065 11.3636 23.0019L11.3636 15.6383C11.3636 14.5337 10.4682 13.6383 9.36363 13.6383L2 13.6383Z" fill="#02367F"/>
</svg>
