<svg width="25" height="25" viewBox="0 0 25 25" fill="none" xmlns="http://www.w3.org/2000/svg">
<path d="M1 12.5C1 6.14888 6.1484 1.0003 12.4994 1C18.8481 1.00748 23.9928 6.1524 23.9999 12.5011C23.9993 18.8519 18.8509 23.9999 12.5 23.9999C6.1487 23.9999 1 18.8513 1 12.5Z" fill="#FFC107" stroke="#F6B03D" stroke-width="2"/>
<path d="M12.5 18.4785C10.5536 18.6144 8.85907 17.1618 8.69562 15.2176C8.69562 14.9175 8.93896 14.6742 9.23911 14.6742C9.53927 14.6742 9.78261 14.9175 9.78261 15.2176C9.95263 16.5573 11.1557 17.5197 12.5 17.3916C13.8442 17.5198 15.0473 16.5573 15.2174 15.2176C15.0473 13.878 13.8442 12.9156 12.5 13.0437C10.5536 13.1796 8.85907 11.727 8.69562 9.78285C8.85907 7.83866 10.5536 6.38615 12.5 6.52198C14.4463 6.38615 16.1409 7.83866 16.3043 9.78285C16.3043 10.083 16.061 10.3263 15.7608 10.3263C15.4607 10.3263 15.2174 10.083 15.2174 9.78285C15.0473 8.44325 13.8442 7.48078 12.5 7.60892C11.1557 7.48078 9.95263 8.44325 9.78261 9.78285C9.95263 11.1225 11.1557 12.0849 12.5 11.9568C14.4463 11.8209 16.1409 13.2735 16.3043 15.2176C16.1409 17.1618 14.4463 18.6143 12.5 18.4785Z" fill="#F6B03D"/>
<path d="M12.5 19.5653C12.1998 19.5653 11.9565 19.322 11.9565 19.0218V5.97834C11.9565 5.67819 12.1998 5.43484 12.5 5.43484C12.8002 5.43484 13.0435 5.67819 13.0435 5.97834V19.0218C13.0435 19.322 12.8002 19.5653 12.5 19.5653Z" fill="#F6B03D"/>
</svg>
