<svg width="25" height="25" viewBox="0 0 25 25" fill="none" xmlns="http://www.w3.org/2000/svg">
<g opacity="0.2" clip-path="url(#clip0)">
<path d="M9.04343 22.7447C9.63028 24.0715 10.9584 25 12.5 25C14.0416 25 15.3697 24.0715 15.9566 22.7447H9.04343Z" fill="black"/>
<path d="M12.4998 2.38851C13.5171 2.38851 14.4939 2.568 15.4003 2.89662V2.78496C15.4003 1.24933 14.151 0 12.6154 0H12.3846C10.849 0 9.59967 1.24933 9.59967 2.78496V2.8952C10.5057 2.56756 11.4822 2.38851 12.4998 2.38851Z" fill="black"/>
<path d="M21.6542 21.2774H3.34581C2.99944 21.2774 2.68217 21.0438 2.61012 20.705C2.53882 20.3695 2.6917 20.0384 3.00188 19.8951C3.07549 19.8474 3.62953 19.46 4.1842 18.2879C5.20292 16.1354 5.41675 13.1033 5.41675 10.9387C5.41675 7.0331 8.59421 3.85574 12.4998 3.85574C16.3961 3.85574 19.5677 7.01779 19.5827 10.9106C19.5831 10.9199 19.5833 10.9293 19.5833 10.9387C19.5833 13.1033 19.7971 16.1354 20.8158 18.2879C21.3705 19.46 21.9245 19.8474 21.9981 19.8951C22.3083 20.0384 22.4613 20.3695 22.3899 20.705C22.3179 21.0438 22.0006 21.2774 21.6542 21.2774ZM22.0064 19.9003H22.0068H22.0064Z" fill="black"/>
</g>
<defs>
<clipPath id="clip0">
<rect width="25" height="25" fill="white"/>
</clipPath>
</defs>
</svg>
