<svg width="24" height="28" viewBox="0 0 24 28" fill="none" xmlns="http://www.w3.org/2000/svg">
<path d="M8.41986 11.3583C11.3987 11.3583 13.8135 9.01636 13.8135 6.12742C13.8135 3.23849 11.3987 0.896545 8.41986 0.896545C5.44105 0.896545 3.02625 3.23849 3.02625 6.12742C3.02625 9.01636 5.44105 11.3583 8.41986 11.3583Z" fill="white" fill-opacity="0.6"/>
<path d="M18.9022 11.7743C20.7853 11.7743 22.3119 10.2938 22.3119 8.46743C22.3119 6.64109 20.7853 5.16055 18.9022 5.16055C17.019 5.16055 15.4924 6.64109 15.4924 8.46743C15.4924 10.2938 17.019 11.7743 18.9022 11.7743Z" fill="white" fill-opacity="0.6"/>
<path d="M9.89601 13.4268C7.18532 13.2075 4.82917 13.4293 2.7969 15.0562C-0.603996 17.6981 0.0504919 21.2552 0.0504919 25.6069C0.0504919 26.7582 1.01638 27.7125 2.22158 27.7125C15.3077 27.7125 15.8286 28.1219 16.6046 26.4553C16.859 25.8917 16.7893 26.0708 16.7893 20.6791C16.7893 16.3966 12.9658 13.4268 9.89601 13.4268Z" fill="white" fill-opacity="0.6"/>
<path d="M19.6523 13.8185C18.0919 13.8185 16.883 13.6788 15.5426 14.7438C18.7642 17.9338 18.2202 21.1132 18.2202 26.0227C18.2202 26.282 17.786 26.2042 21.9734 26.2042C23.0149 26.2042 23.8618 25.3859 23.8618 24.38V17.8763C23.8618 15.6391 21.9734 13.8185 19.6523 13.8185Z" fill="white" fill-opacity="0.6"/>
</svg>
