<svg width="31" height="23" viewBox="0 0 31 23" fill="none" xmlns="http://www.w3.org/2000/svg">
<path d="M23.2709 13.5046C23.5378 13.7774 23.6017 14.1981 23.4189 14.5345C22.7907 15.6907 21.2173 16.2031 20.0292 15.3118C17.2561 13.2301 13.4542 13.2535 10.7124 15.3118C9.52583 16.2019 7.95134 15.6917 7.32266 14.5347C7.13985 14.1982 7.20362 13.7774 7.47063 13.5047C11.8206 9.06009 18.9161 9.05481 23.2709 13.5046Z" fill="white" fill-opacity="0.6"/>
<path d="M24.3978 12.1836C19.3273 7.13894 11.3433 7.21318 6.34399 12.1836C6.12675 12.3995 5.81513 12.4889 5.52011 12.4128C4.60562 12.1772 3.91785 11.3846 3.8307 10.4264C3.80674 10.1633 3.90286 9.90295 4.08972 9.7185C10.3752 3.51364 20.3738 3.52114 26.6519 9.71844C26.8387 9.90283 26.9349 10.1632 26.911 10.4262C26.8237 11.3832 26.1374 12.1768 25.2219 12.4128C24.9268 12.4889 24.615 12.3997 24.3978 12.1836Z" fill="white" fill-opacity="0.6"/>
<path d="M29.5196 8.5487C29.4442 8.62417 29.3663 8.69319 29.2865 8.75606C28.9432 9.02623 28.4518 8.98791 28.1465 8.67456C21.1185 1.4622 9.62977 1.45898 2.59192 8.67813C2.2788 8.99933 1.77436 9.02664 1.429 8.74129C1.37281 8.69483 1.31836 8.64532 1.26593 8.59271C0.231818 7.55973 0.388642 6.04513 1.33653 5.22602C9.3976 -1.74054 21.3405 -1.74347 29.405 5.22602C30.4004 6.08609 30.4484 7.61709 29.5196 8.5487Z" fill="white" fill-opacity="0.6"/>
<path d="M15.3708 22.5012C16.6492 22.5012 17.6855 21.4519 17.6855 20.1575C17.6855 18.8631 16.6492 17.8138 15.3708 17.8138C14.0924 17.8138 13.0561 18.8631 13.0561 20.1575C13.0561 21.4519 14.0924 22.5012 15.3708 22.5012Z" fill="white" fill-opacity="0.6"/>
</svg>
